<svg width="25" height="20" viewBox="0 0 25 20" fill="none" xmlns="http://www.w3.org/2000/svg">
<path d="M23.5339 0.391059C21.1554 0.526042 16.428 1.01736 13.5095 2.80382C13.3082 2.92708 13.194 3.14627 13.194 3.37543V19.1684C13.194 19.6697 13.7422 19.9865 14.2044 19.7539C17.207 18.2426 21.5495 17.8303 23.6966 17.7174C24.4297 17.6788 24.9996 17.0911 24.9996 16.3867V1.72352C25 0.954861 24.3333 0.345921 23.5339 0.391059ZM11.49 2.80382C8.57205 1.01736 3.84462 0.526476 1.46615 0.391059C0.666667 0.345921 0 0.954861 0 1.72352V16.3871C0 17.092 0.569879 17.6797 1.30295 17.7179C3.45095 17.8307 7.79557 18.2435 10.7982 19.7556C11.2591 19.9878 11.8056 19.6714 11.8056 19.1714V3.36762C11.8056 3.13802 11.6918 2.92752 11.49 2.80382Z" fill="#5B5B5B"/>
</svg>
