<svg width="25" height="25" viewBox="0 0 25 25" fill="none" xmlns="http://www.w3.org/2000/svg">
<path d="M7.8125 15.625H8.39844V16.4062C8.39844 16.8379 8.74805 17.1875 9.17969 17.1875H11.1328C11.5645 17.1875 11.9141 16.8379 11.9141 16.4062V15.625H12.5C13.3628 15.625 14.0625 14.9253 14.0625 14.0625V3.125C14.0625 2.26221 13.3628 1.5625 12.5 1.5625V0.78125C12.5 0.349609 12.1504 0 11.7188 0H8.59375C8.16211 0 7.8125 0.349609 7.8125 0.78125V1.5625C6.94971 1.5625 6.25 2.26221 6.25 3.125V14.0625C6.25 14.9253 6.94971 15.625 7.8125 15.625ZM22.6562 21.875H22.5933C24.084 20.2144 25 18.0273 25 15.625C25 10.4551 20.7949 6.25 15.625 6.25V9.375C19.0713 9.375 21.875 12.1787 21.875 15.625C21.875 19.0713 19.0713 21.875 15.625 21.875H2.34375C1.04932 21.875 0 22.9243 0 24.2188C0 24.6504 0.349609 25 0.78125 25H24.2188C24.6504 25 25 24.6504 25 24.2188C25 22.9243 23.9507 21.875 22.6562 21.875ZM5.07812 20.3125H15.2344C15.4502 20.3125 15.625 20.1377 15.625 19.9219V19.1406C15.625 18.9248 15.4502 18.75 15.2344 18.75H5.07812C4.8623 18.75 4.6875 18.9248 4.6875 19.1406V19.9219C4.6875 20.1377 4.8623 20.3125 5.07812 20.3125Z" fill="#5B5B5B"/>
</svg>
