<svg width="25" height="23" viewBox="0 0 25 23" fill="none" xmlns="http://www.w3.org/2000/svg">
<path d="M1.5625 20.875C1.5625 21.7393 2.26074 22.4375 3.125 22.4375H21.875C22.7393 22.4375 23.4375 21.7393 23.4375 20.875V6.8125H1.5625V20.875ZM9.375 10.5234C9.375 10.2012 9.63867 9.9375 9.96094 9.9375H15.0391C15.3613 9.9375 15.625 10.2012 15.625 10.5234V10.9141C15.625 11.2363 15.3613 11.5 15.0391 11.5H9.96094C9.63867 11.5 9.375 11.2363 9.375 10.9141V10.5234ZM23.4375 0.5625H1.5625C0.698242 0.5625 0 1.26074 0 2.125V4.46875C0 4.89844 0.351562 5.25 0.78125 5.25H24.2188C24.6484 5.25 25 4.89844 25 4.46875V2.125C25 1.26074 24.3018 0.5625 23.4375 0.5625Z" fill="#9C3030"/>
</svg>
